<?xml version="1.0" encoding="UTF-8"?>
<svg version="1.1" xmlns="http://www.w3.org/2000/svg" width="559" height="578">
<path d="M0 0 C184.47 0 368.94 0 559 0 C559 190.74 559 381.48 559 578 C374.53 578 190.06 578 0 578 C0 387.26 0 196.52 0 0 Z " fill="#1C2B4A" transform="translate(0,0)"/>
<path d="M0 0 C1.01051401 -0.00807831 1.01051401 -0.00807831 2.04144245 -0.01631981 C4.29775761 -0.03062201 6.55348796 -0.02349044 8.80982971 -0.01637268 C10.42790702 -0.0220751 12.04598031 -0.02903886 13.66404724 -0.03717041 C18.05869193 -0.05513143 22.45313726 -0.05392791 26.84780765 -0.04822803 C30.51589623 -0.04514036 34.18394628 -0.05122393 37.85202938 -0.05726677 C46.50515029 -0.07132011 55.15817249 -0.06974405 63.81129456 -0.05836487 C72.73980105 -0.04688304 81.6680072 -0.06095851 90.59647411 -0.08776134 C98.26113452 -0.10990924 105.9257006 -0.11655777 113.59039074 -0.11068493 C118.16862463 -0.10731193 122.74666597 -0.10975308 127.32487297 -0.12693596 C131.63006513 -0.14238854 135.93481196 -0.13846853 140.23998642 -0.11963081 C141.81980745 -0.1159402 143.39966135 -0.11906719 144.97945213 -0.1295166 C147.13688136 -0.142697 149.29282986 -0.13120768 151.45019531 -0.11352539 C153.26063906 -0.11321146 153.26063906 -0.11321146 155.10765743 -0.1128912 C159.11171121 0.51721161 160.52771634 1.41693951 163.28858948 4.38768005 C163.78639082 7.49942701 163.9576019 10.06455357 163.91220856 13.17713928 C163.92221057 14.52958697 163.92221057 14.52958697 163.93241465 15.90935683 C163.9487521 18.95285712 163.92921898 21.99508986 163.91004944 25.03855896 C163.91437524 27.23355943 163.92088832 29.4285565 163.9294095 31.62354469 C163.94646883 37.67256635 163.93217242 43.72117666 163.91289473 49.77017689 C163.89751702 56.2869614 163.91085682 62.80369388 163.92063904 69.32048035 C163.93530462 81.35473446 163.92543494 93.38885184 163.90522287 105.42309302 C163.88668372 116.5394934 163.87824269 127.65584671 163.87979126 138.77226257 C163.87992877 139.87728412 163.87992877 139.87728412 163.88006907 141.00462933 C163.88046221 143.99487509 163.88091182 146.98512083 163.88144046 149.97536657 C163.88631424 178.04010986 163.86363142 206.1047696 163.82748423 234.16948691 C163.79548969 259.11658421 163.78344044 284.06361013 163.78956604 309.01072693 C163.78995288 310.61251394 163.79033934 312.21430095 163.79072541 313.81608796 C163.79091676 314.60797177 163.7911081 315.39985558 163.79130525 316.21573588 C163.79225955 320.2017717 163.79317392 324.18780754 163.79404449 328.17384338 C163.79430519 329.35335653 163.79430519 329.35335653 163.79457114 330.55669822 C163.79892399 351.38729497 163.78891699 372.21788399 163.77420664 393.04847527 C163.7736865 393.78925734 163.77316635 394.53003942 163.77263045 395.29326943 C163.77185144 396.40244135 163.77185144 396.40244135 163.77105668 397.53402078 C163.77053894 398.27213508 163.7700212 399.01024938 163.76948777 399.77073078 C163.76843968 401.25725745 163.76737947 402.7437841 163.76630705 404.23031075 C163.75891914 414.60429907 163.75683957 424.97827647 163.75830106 435.35226709 C163.76014482 448.71956124 163.75178535 462.08678376 163.7266596 475.45405626 C163.71476995 481.90305459 163.70769412 488.35196319 163.71349716 494.80097198 C163.71864667 500.69777685 163.71006004 506.59439169 163.69022256 512.49116397 C163.68545972 514.63106926 163.6858119 516.77099291 163.69163293 518.91089559 C163.69875296 521.80690039 163.68762902 524.70226485 163.67169952 527.59822083 C163.67815133 528.44008116 163.68460313 529.28194149 163.69125044 530.14931273 C163.65666645 533.47081434 163.52487158 535.94287475 161.95117521 538.90538639 C159.32576821 541.24609224 157.02826835 540.89446627 153.57008362 540.90234375 C152.88360024 540.90928928 152.19711687 540.91623481 151.48983097 540.92339081 C149.18414099 540.9417217 146.8794729 540.93138052 144.57374573 540.92112732 C142.92301155 540.92818273 141.27228384 540.93692615 139.62156677 540.94723511 C135.13397724 540.96978035 130.64673952 540.96677766 126.15911484 540.95791364 C122.41631825 540.95281221 118.67358826 540.96008933 114.93079853 540.96738571 C106.10371417 540.9844007 97.27680261 540.98080241 88.44972229 540.96409607 C79.33424897 540.94716736 70.21925425 540.96301587 61.1038332 540.99531895 C53.28464615 541.02198169 45.46560838 541.02930002 37.64638042 541.02080387 C32.97314522 541.01586562 28.30019815 541.01813866 23.6269989 541.03859138 C19.23391481 541.056897 14.84152145 541.05105324 10.44847488 541.02639198 C8.83395358 541.02136796 7.21938011 541.02491498 5.60490036 541.03754044 C3.40482924 541.05338753 1.20705623 541.0386044 -0.99290466 541.01586914 C-2.84124657 541.01498968 -2.84124657 541.01498968 -4.72692871 541.01409245 C-7.71141052 540.38768005 -7.71141052 540.38768005 -9.60876942 538.26800919 C-10.90693804 534.87692129 -11.08066731 532.30649915 -11.07217407 528.67422485 C-11.07474213 528.0140889 -11.07731018 527.35395294 -11.07995605 526.67381287 C-11.08490799 524.46254413 -11.06837499 522.25196231 -11.05198669 520.04075623 C-11.05106741 518.42816597 -11.05146864 516.81557452 -11.05308247 515.20298481 C-11.0537593 510.88747601 -11.03638147 506.57221714 -11.01525116 502.25676727 C-10.99815671 498.20619933 -10.99736129 494.15569193 -10.995224 490.10508728 C-10.97948676 478.26175181 -10.93760324 466.41846277 -10.89891052 454.57518005 C-10.83703552 428.11330505 -10.77516052 401.65143005 -10.71141052 374.38768005 C-94.86141052 373.89268005 -94.86141052 373.89268005 -180.71141052 373.38768005 C-180.55299043 426.85113918 -180.55299043 426.85113918 -180.35105896 480.31443787 C-180.33299255 490.64305115 -180.33299255 490.64305115 -180.32963562 495.47477722 C-180.32590145 498.85720769 -180.31088206 502.2393883 -180.28910828 505.62174988 C-180.26171969 509.93327745 -180.2534368 514.24444047 -180.25912142 518.55604696 C-180.25793234 520.14019226 -180.24997169 521.72434999 -180.23455 523.30842066 C-180.21470649 525.44559498 -180.21942804 527.58134589 -180.23039246 529.71855164 C-180.22670528 530.91688251 -180.22301811 532.11521339 -180.21921921 533.34985733 C-180.71141052 536.38768005 -180.71141052 536.38768005 -182.31642437 538.7723341 C-185.5267683 540.9376143 -187.64991518 540.89348611 -191.51220703 540.90234375 C-192.19546128 540.90928928 -192.87871552 540.91623481 -193.58267444 540.92339081 C-195.8714429 540.94168306 -198.1591774 540.93139129 -200.44798279 540.92112732 C-202.08901242 540.92818461 -203.73003553 540.93692883 -205.37104797 540.94723511 C-209.82758844 540.96975734 -214.28377426 540.96678329 -218.74035001 540.95791364 C-222.45834362 540.95280864 -226.17627029 540.96009211 -229.89425701 540.96738571 C-238.66238773 540.98439285 -247.43034444 540.98080966 -256.19847107 540.96409607 C-265.25205033 540.9471619 -274.30514791 540.96302512 -283.35867459 540.99531895 C-291.12692704 541.02198108 -298.89502924 541.02930038 -306.66332287 541.02080387 C-311.30524477 541.01586621 -315.94687659 541.01813573 -320.58876228 541.03859138 C-324.95149261 541.05689647 -329.3135274 541.05105396 -333.67621994 541.02639198 C-335.27945416 541.02136809 -336.88274093 541.02491464 -338.4859333 541.03754044 C-340.67062978 541.05338813 -342.85301217 541.03860411 -345.03759766 541.01586914 C-346.87292982 541.01498968 -346.87292982 541.01498968 -348.74533939 541.01409245 C-351.71141052 540.38768005 -351.71141052 540.38768005 -353.60134983 537.99331093 C-354.72378346 535.35863721 -355.13146466 533.51028676 -355.22654724 530.66429138 C-355.27946426 529.30181023 -355.27946426 529.30181023 -355.33345032 527.9118042 C-355.35247406 526.94091354 -355.3714978 525.97002289 -355.39109802 524.9697113 C-355.41294159 523.95728867 -355.43478516 522.94486603 -355.45729065 521.90176392 C-355.49433879 519.76105467 -355.52235741 517.6201727 -355.54197693 515.47923279 C-355.5860609 512.22598135 -355.7048335 508.98069414 -355.82469177 505.72947693 C-356.15163438 489.64431974 -356.15163438 489.64431974 -352.51707458 484.90110779 C-349.7240016 482.31398129 -346.96571156 480.35278747 -343.71141052 478.38768005 C-342.16256102 477.22925339 -340.62024102 476.06201449 -339.08641052 474.8837738 C-337.63241089 473.85807153 -336.17405959 472.8385101 -334.71141052 471.82518005 C-328.70081985 467.57521704 -322.9198529 463.2181829 -317.27391052 458.4931488 C-313.54180306 455.42667636 -309.66498305 452.56629809 -305.78953552 449.68455505 C-295.76681214 442.20567009 -285.93763253 434.46468438 -276.07078552 426.7822113 C-275.35148865 426.22227478 -274.63219177 425.66233826 -273.89109802 425.08543396 C-272.43734156 423.95310618 -270.98421666 422.8199671 -269.53172302 421.6860199 C-262.90530793 416.5186454 -256.21848322 411.43235538 -249.52781677 406.34861755 C-243.89436102 402.06355136 -238.28932654 397.74476447 -232.71141052 393.38768005 C-223.70879915 386.3609587 -214.71037143 379.33880937 -205.55125427 372.5165863 C-202.50039311 370.22948956 -199.47840814 367.9065796 -196.46141052 365.57518005 C-189.61233982 360.28777999 -182.68935252 355.1010713 -175.75975037 349.91990662 C-172.40778394 347.41252386 -169.05977185 344.89987375 -165.71141052 342.38768005 C-164.37809673 341.387654 -163.04476338 340.38765402 -161.71141052 339.38768005 C-161.05141052 338.89268005 -160.39141052 338.39768005 -159.71141052 337.88768005 C-137.71141052 321.38768005 -137.71141052 321.38768005 -135.7106781 319.88719177 C-134.37970801 318.88892358 -133.04881586 317.89055147 -131.71800232 316.89207458 C-128.3491484 314.36471263 -124.97888547 311.83926944 -121.60594177 309.31736755 C-115.50633508 304.75412523 -109.42100455 300.1778972 -103.39891052 295.51268005 C-97.42233349 290.88658856 -91.34046004 286.40889251 -85.24729919 281.93797302 C-78.16687871 276.73807943 -71.13690046 271.4727533 -64.12132263 266.18577576 C-63.32605164 265.58724792 -62.53078064 264.98872009 -61.71141052 264.37205505 C-61.01016052 263.84321716 -60.30891052 263.31437927 -59.58641052 262.76951599 C-54.98664538 259.37958491 -54.98664538 259.37958491 -52.32078552 259.45799255 C-48.85498758 260.69281278 -47.36499118 262.48992197 -44.96141052 265.26268005 C-44.52731873 265.75735779 -44.09322693 266.25203552 -43.64598083 266.76170349 C-40.83664311 269.98845192 -38.14374501 273.30477937 -35.46141052 276.63768005 C-30.58061406 282.69090982 -25.26380108 288.29598306 -19.93406677 293.95018005 C-17.57977366 296.45031433 -15.27030565 298.97693991 -13.02391052 301.57518005 C-10.03949233 305.02519802 -7.01570895 308.43698077 -3.96141052 311.82518005 C-3.48872742 312.3584491 -3.01604431 312.89171814 -2.52903748 313.44114685 C-0.27605319 315.92632275 1.04949387 317.30798152 4.28858948 318.38768005 C4.44714417 317.8050238 4.60569885 317.22236755 4.76905823 316.62205505 C6.10889152 311.91413254 7.63912784 307.38867151 9.55812073 302.8837738 C12.38125129 296.18699769 15.0941447 289.44962189 17.78858948 282.70018005 C18.0442569 282.06006989 18.29992432 281.41995972 18.56333923 280.76045227 C31.54532937 248.25050011 44.27868971 215.64592456 56.63233948 182.8915863 C56.99994385 181.91706512 57.36754822 180.94254395 57.74629211 179.93849182 C59.51429783 175.24938887 61.27941898 170.55923071 63.03956604 165.86717224 C68.64114955 150.97650292 74.46900485 136.2011682 80.28858948 121.38768005 C50.25858948 121.38768005 20.22858948 121.38768005 -10.71141052 121.38768005 C-10.8720652 92.0191132 -10.8720652 92.0191132 -10.91242599 77.54344273 C-10.93461727 69.70520945 -10.96281809 61.86714588 -11.01316833 54.02903748 C-11.05725577 47.16260408 -11.08052673 40.29635457 -11.09091949 33.42978859 C-11.09832887 30.80582599 -11.11279695 28.18187382 -11.13433075 25.55798912 C-11.16323024 21.8918649 -11.16737203 18.22650667 -11.16551208 14.56028748 C-11.17989319 13.46768616 -11.19427429 12.37508484 -11.20909119 11.24937439 C-11.20359253 10.25238022 -11.19809387 9.25538605 -11.19242859 8.22817993 C-11.19611576 7.36077273 -11.19980293 6.49336554 -11.20360184 5.59967327 C-10.71141052 3.38768005 -10.71141052 3.38768005 -9.10081005 1.60937881 C-5.9298884 -0.01191181 -3.56053994 0.00717043 0 0 Z " fill="#FEFEFE" transform="translate(370.71141052246094,19.612319946289063)"/>
<path d="M0 0 C0.675236 -0.00709439 1.350472 -0.01418877 2.0461697 -0.02149814 C4.30211087 -0.03905935 6.55632465 -0.02098573 8.8122406 -0.00291443 C10.4320911 -0.00805398 12.05193601 -0.01533554 13.67176819 -0.02459717 C18.06643924 -0.04311354 22.4605037 -0.03017194 26.85514951 -0.01050687 C31.45372301 0.00587629 36.052258 -0.00293267 40.65084839 -0.00802612 C48.37222487 -0.012547 56.09335909 0.00332349 63.81468201 0.03126526 C72.7438192 0.06332852 81.67251972 0.06329705 90.60168797 0.04605049 C99.19010051 0.03019266 107.77835283 0.03691341 116.36675835 0.0539875 C120.02261045 0.06086318 123.67833433 0.05982031 127.33418465 0.05244255 C131.63778523 0.04478718 135.94088816 0.05688098 140.24440384 0.08429146 C141.8246316 0.09118387 143.40490577 0.09126407 144.98513222 0.08407593 C147.14071043 0.07539969 149.29474623 0.09130294 151.45019531 0.11352539 C153.26007352 0.11773577 153.26007352 0.11773577 155.10651493 0.12203121 C158.16160583 0.62818909 158.16160583 0.62818909 160.55100536 2.30759907 C162.55076201 5.18889421 162.65550439 6.78168146 162.6426239 10.27229309 C162.64812256 11.4221167 162.65362122 12.57194031 162.6592865 13.75660706 C162.63771484 15.64258606 162.63771484 15.64258606 162.6157074 17.56666565 C162.61457882 18.90713975 162.61521298 20.24761633 162.61747742 21.58808899 C162.61862513 25.2243166 162.59510723 28.86001646 162.56718159 32.49612141 C162.54217714 36.29709511 162.5398267 40.09808089 162.53507996 43.89912415 C162.52264732 51.09563218 162.48982197 58.29189717 162.449682 65.48829818 C162.40497313 73.68167107 162.3829795 81.87505556 162.36290026 90.06852007 C162.32108946 106.92188366 162.25073198 123.77501068 162.16160583 140.62818909 C162.88750916 140.60724182 163.61341248 140.58629456 164.36131287 140.56471252 C167.66960139 140.48125259 170.97766794 140.4294337 174.28660583 140.37818909 C175.42871521 140.34467346 176.57082458 140.31115784 177.74754333 140.27662659 C184.21499613 140.20142365 188.27196666 140.21507161 193.16160583 144.62818909 C193.77906677 145.16959534 194.39652771 145.71100159 195.03269958 146.26881409 C198.57385883 149.90711237 201.97567928 153.63348301 205.29441833 157.47584534 C210.19585644 163.12582943 215.24907401 168.64319196 220.30955505 174.15065002 C221.70875889 175.67398068 223.10534467 177.19967467 224.50144958 178.72584534 C226.19491227 180.57348524 227.89476227 182.41530583 229.60301208 184.24928284 C230.32359802 185.0343219 231.04418396 185.81936096 231.78660583 186.62818909 C232.41824646 187.30881409 233.04988708 187.98943909 233.70066833 188.69068909 C236.19153879 191.99408947 236.19153879 191.99408947 236.16160583 194.62818909 C228.44017383 203.6720763 217.66571828 210.58673078 208.16160583 217.62818909 C199.69039413 223.94465944 191.28144683 230.3404147 182.88059998 236.75001526 C178.15504018 240.35369482 173.42195062 243.94559099 168.66160583 247.50318909 C164.29261522 250.76920872 159.96071477 254.08008525 155.64134216 257.41139221 C143.39497543 266.85007277 131.08632174 276.20740503 118.7040863 285.46705627 C112.4775243 290.12860231 106.31524864 294.87100886 100.16160583 299.62818909 C98.05823513 301.25423627 95.95442732 302.87967286 93.84910583 304.50318909 C93.32179871 304.90996887 92.79449158 305.31674866 92.25120544 305.7358551 C88.56263904 308.57274714 84.84264102 311.36502005 81.11106873 314.14503479 C74.88349792 318.78511373 68.78210054 323.51620773 62.80613708 328.47975159 C58.9775997 331.59008476 55.01450376 334.51030988 51.05613708 337.45240784 C47.5933276 340.0553564 44.21705823 342.75287227 40.84519958 345.47193909 C32.67481332 352.03679093 24.40123391 358.47276811 16.0766449 364.84059143 C13.15642872 367.07847243 10.25650509 369.33878283 7.37644958 371.62818909 C6.74609802 372.12834534 6.11574646 372.62850159 5.46629333 373.14381409 C4.25159234 374.10947597 3.03921927 375.07807586 1.82957458 376.05006409 C-5.19230042 381.62818909 -5.19230042 381.62818909 -9.83839417 381.62818909 C-9.84870163 380.75344437 -9.85900909 379.87869965 -9.86962891 378.97744751 C-9.96742927 370.75136551 -10.0699183 362.52535837 -10.17773342 354.29940128 C-10.23300103 350.06991295 -10.28642702 345.84041776 -10.33570862 341.6108551 C-10.38329576 337.53244245 -10.43563624 333.45411647 -10.49133492 329.37580681 C-10.51178417 327.81643761 -10.53049292 326.25704463 -10.54746819 324.69763374 C-10.5714556 322.52083318 -10.60151735 320.34419784 -10.6330719 318.16749573 C-10.64861618 316.92617386 -10.66416046 315.68485199 -10.68017578 314.40591431 C-10.5239093 311.72075692 -10.5239093 311.72075692 -11.83839417 310.62818909 C-11.93999342 309.00660031 -11.97130781 307.38057307 -11.97540855 305.75580978 C-11.9804831 304.69446658 -11.98555764 303.63312337 -11.99078596 302.53961825 C-11.99128371 301.35920246 -11.99178147 300.17878667 -11.99229431 298.96260071 C-11.99667657 297.71979064 -12.00105882 296.47698058 -12.00557387 295.1965096 C-12.01666822 291.73093065 -12.02319553 288.26539705 -12.02775502 284.79980683 C-12.03369855 281.06825989 -12.04531154 277.33672974 -12.05604553 273.60519409 C-12.08059909 264.58512274 -12.09520143 255.56504582 -12.1081056 246.54495132 C-12.11181551 243.99864883 -12.11578891 241.4523469 -12.11985826 238.90604496 C-12.14509379 223.10534647 -12.16715435 207.30464716 -12.17958641 191.50393295 C-12.18251628 187.84173835 -12.18547792 184.17954378 -12.18849182 180.51734924 C-12.1896109 179.15195857 -12.1896109 179.15195857 -12.19075258 177.75898424 C-12.2034097 163.0089866 -12.23663562 148.25910942 -12.27829365 133.50916812 C-12.32068166 118.37711543 -12.34427786 103.24512446 -12.34950697 88.11301255 C-12.35292477 79.61226973 -12.36472305 71.11171508 -12.39760971 62.61103058 C-12.4255685 55.37209356 -12.43662805 48.13338328 -12.42541425 40.89439645 C-12.42021667 37.1995027 -12.42318449 33.50508404 -12.44787979 29.81025887 C-12.47441316 25.80707779 -12.4623495 21.80494881 -12.44639587 17.80171204 C-12.46027796 16.63021913 -12.47416005 15.45872623 -12.48846281 14.25173354 C-12.41203736 6.50378794 -12.41203736 6.50378794 -9.72779369 2.40660572 C-6.20601447 0.23896131 -4.12565619 0.00200413 0 0 Z " fill="#FEFEFE" transform="translate(27.838394165039063,19.371810913085938)"/>
</svg>
